<svg width="105" height="99" viewBox="0 0 105 99" fill="none" xmlns="http://www.w3.org/2000/svg">
<path d="M53.3702 65.8039C53.0409 65.994 52.6681 66.109 52.2826 66.1276L39.8601 66.7274C36.3343 66.8961 33.3013 66.552 30.5845 65.6798C24.64 63.7738 19.6515 59.8015 16.5414 54.4889L6.29839 37.0072C5.11581 34.9898 5.38092 32.4132 6.95081 30.5941L21.0156 14.3457C21.8456 13.372 23.0073 12.6944 24.2767 12.4386L45.3278 8.1363C47.6824 7.65158 50.0603 8.68497 51.2387 10.7013L61.4892 28.196C64.5975 33.4993 65.6249 39.7861 64.3849 45.8989C63.8157 48.703 62.6293 51.5141 60.762 54.4937L54.1814 65.014C53.9782 65.3422 53.698 65.6112 53.3702 65.8039Z" fill="url(#paint0_linear_4542_64)"/>
<g filter="url(#filter0_f_4542_64)">
<path d="M47.8767 55.3881C47.6534 55.517 47.4044 55.6014 47.1505 55.6272L38.9705 56.458C36.6489 56.6929 34.67 56.5947 32.9184 56.1606C29.0857 55.2124 25.9578 52.9605 24.1133 49.8162L18.0381 39.4696C17.3366 38.2757 17.6067 36.6846 18.7054 35.5098L28.5467 25.0147C29.1281 24.3863 29.9161 23.9272 30.7593 23.7229L44.7435 20.2986C46.3077 19.9134 47.8308 20.459 48.5295 21.6525L54.6092 32.0067C56.4528 35.1454 56.8933 38.9652 55.8514 42.7626C55.3731 44.5046 54.4893 46.2739 53.1521 48.172L48.4389 54.8732C48.2932 55.0821 48.0992 55.2576 47.8767 55.3881Z" fill="url(#paint1_linear_4542_64)"/>
</g>
<g filter="url(#filter1_b_4542_64)">
<path d="M60.1434 96.4105C59.6436 96.3337 59.1615 96.142 58.7464 95.8392L45.3699 86.0807C41.5745 83.3094 38.7173 80.415 36.6279 77.2335C32.054 70.2751 30.1928 61.9595 31.3954 53.8153L35.3434 27.0083C35.7985 23.9144 38.2201 21.447 41.3631 20.8608L69.4803 15.6608C71.1519 15.3386 72.9206 15.6025 74.4496 16.3967L99.8552 29.5041C102.7 30.9665 104.304 34.0328 103.845 37.1222L99.894 63.9489C98.6973 72.0819 94.5241 79.5018 88.1457 84.8447C85.2193 87.2953 81.6473 89.2374 77.2292 90.786L61.6424 96.2643C61.1583 96.437 60.6438 96.4834 60.1434 96.4105Z" fill="#021A84" fill-opacity="0.3"/>
<path d="M60.0713 96.9053L60.0674 96.9047C59.4925 96.8163 58.9346 96.5954 58.4517 96.2431L45.0752 86.4846L45.075 86.4845C41.242 83.6857 38.339 80.7497 36.2101 77.5082C31.5698 70.4487 29.68 62.0097 30.9007 53.7424L60.0713 96.9053ZM60.0713 96.9053C60.6493 96.9895 61.2458 96.9363 61.8085 96.7359C61.8091 96.7357 61.8097 96.7355 61.8104 96.7352L77.3946 91.2579L60.0713 96.9053ZM34.8488 26.9356L30.9007 53.7422L104.34 37.195C104.83 33.8877 103.113 30.617 100.084 29.0597C100.084 29.0596 100.084 29.0595 100.084 29.0594L74.6801 15.953C74.6798 15.9529 74.6796 15.9527 74.6793 15.9526C73.0529 15.1081 71.171 14.8262 69.3875 15.1695C69.3869 15.1696 69.3862 15.1697 69.3856 15.1699L41.2722 20.3692L41.2714 20.3693C37.9258 20.9932 35.336 23.623 34.8488 26.9355C34.8488 26.9355 34.8488 26.9356 34.8488 26.9356ZM100.389 64.0217L104.34 37.1956L77.395 91.2577C81.8571 89.6937 85.485 87.7249 88.4667 85.2281L88.4668 85.228C94.9378 79.8075 99.1738 72.2776 100.389 64.0217Z" stroke="url(#paint2_linear_4542_64)" stroke-linecap="round" stroke-linejoin="round"/>
</g>
<g filter="url(#filter2_b_4542_64)">
<path d="M61.8127 64.9431C61.032 64.8271 60.2951 64.4261 59.7827 63.7558L53.1908 55.1259C52.174 53.7866 52.4503 51.9088 53.8116 50.9271C55.1735 49.9415 57.1053 50.2264 58.1268 51.5624L62.8703 57.7691L78.5222 46.4591C79.8881 45.4741 81.8199 45.759 82.8373 47.0944C83.8582 48.4343 83.5813 50.316 82.2206 51.2937L64.0978 64.3911C63.4145 64.8856 62.5935 65.0591 61.8127 64.9431Z" fill="url(#paint3_linear_4542_64)"/>
<path d="M53.8702 51.0081L53.8701 51.0082C52.5547 51.9569 52.2874 53.7706 53.2705 55.0654L59.8621 63.6951C60.3578 64.3434 61.0708 64.7317 61.8274 64.8442C62.5838 64.9566 63.3782 64.7884 64.0392 64.3101L64.0393 64.3101L82.162 51.2127L82.1623 51.2125C83.4768 50.2679 83.7448 48.4505 82.7578 47.155C81.7734 45.8629 79.9029 45.5868 78.5807 46.5401L53.8702 51.0081ZM53.8702 51.0081C55.1882 50.0543 57.0587 50.3302 58.0473 51.6232L62.7909 57.8298L62.85 57.9072L62.9289 57.8502L78.5806 46.5402L53.8702 51.0081Z" stroke="url(#paint4_linear_4542_64)" stroke-opacity="0.5" stroke-width="0.2"/>
</g>
<defs>
<filter id="filter0_f_4542_64" x="1.65125" y="4.17639" width="70.7529" height="68.4057" filterUnits="userSpaceOnUse" color-interpolation-filters="sRGB">
<feFlood flood-opacity="0" result="BackgroundImageFix"/>
<feBlend mode="normal" in="SourceGraphic" in2="BackgroundImageFix" result="shape"/>
<feGaussianBlur stdDeviation="8" result="effect1_foregroundBlur_4542_64"/>
</filter>
<filter id="filter1_b_4542_64" x="6.0387" y="-9.47321" width="122.884" height="130.917" filterUnits="userSpaceOnUse" color-interpolation-filters="sRGB">
<feFlood flood-opacity="0" result="BackgroundImageFix"/>
<feGaussianBlur in="BackgroundImageFix" stdDeviation="12"/>
<feComposite in2="SourceAlpha" operator="in" result="effect1_backgroundBlur_4542_64"/>
<feBlend mode="normal" in="SourceGraphic" in2="effect1_backgroundBlur_4542_64" result="shape"/>
</filter>
<filter id="filter2_b_4542_64" x="37.5779" y="30.8726" width="60.8755" height="49.1052" filterUnits="userSpaceOnUse" color-interpolation-filters="sRGB">
<feFlood flood-opacity="0" result="BackgroundImageFix"/>
<feGaussianBlur in="BackgroundImageFix" stdDeviation="7.5"/>
<feComposite in2="SourceAlpha" operator="in" result="effect1_backgroundBlur_4542_64"/>
<feBlend mode="normal" in="SourceGraphic" in2="effect1_backgroundBlur_4542_64" result="shape"/>
</filter>
<linearGradient id="paint0_linear_4542_64" x1="22.6063" y1="13.0507" x2="53.1401" y2="65.9367" gradientUnits="userSpaceOnUse">
<stop stop-color="#021A84"/>
<stop offset="1" stop-color="#6F7EBE"/>
</linearGradient>
<linearGradient id="paint1_linear_4542_64" x1="29.6396" y1="24.1607" x2="47.7207" y2="55.4782" gradientUnits="userSpaceOnUse">
<stop stop-color="#021A84"/>
<stop offset="1" stop-color="#6F7EBE"/>
</linearGradient>
<linearGradient id="paint2_linear_4542_64" x1="47.3785" y1="21.4467" x2="91.4643" y2="84.9134" gradientUnits="userSpaceOnUse">
<stop stop-color="white" stop-opacity="0.25"/>
<stop offset="1" stop-color="white" stop-opacity="0"/>
</linearGradient>
<linearGradient id="paint3_linear_4542_64" x1="81.1842" y1="49.9292" x2="48.055" y2="46.3477" gradientUnits="userSpaceOnUse">
<stop stop-color="white"/>
<stop offset="1" stop-color="white" stop-opacity="0.2"/>
</linearGradient>
<linearGradient id="paint4_linear_4542_64" x1="56.3887" y1="49.5166" x2="81.4639" y2="53.5685" gradientUnits="userSpaceOnUse">
<stop stop-color="white"/>
<stop offset="1" stop-color="white" stop-opacity="0"/>
</linearGradient>
</defs>
</svg>
